<svg width="67" height="58" viewBox="0 0 67 58" fill="none" xmlns="http://www.w3.org/2000/svg">
<g clip-path="url(#clip0_53_71)">
<path d="M35.6623 39.9085H39.3807V31.7722H47.5611V28.0738H39.3807V19.9375H35.6623V28.0738H27.482V31.7722H35.6623V39.9085ZM20.1692 50.8803C19.1777 50.8803 18.31 50.5104 17.5664 49.7708C16.8227 49.0311 16.4509 48.1682 16.4509 47.1819V12.664C16.4509 11.6778 16.8227 10.8149 17.5664 10.0752C18.31 9.33553 19.1777 8.9657 20.1692 8.9657H54.8738C55.8654 8.9657 56.733 9.33553 57.4767 10.0752C58.2203 10.8149 58.5922 11.6778 58.5922 12.664V47.1819C58.5922 48.1682 58.2203 49.0311 57.4767 49.7708C56.733 50.5104 55.8654 50.8803 54.8738 50.8803H20.1692ZM20.1692 47.1819H54.8738V12.664H20.1692V47.1819ZM12.7325 58.277C11.741 58.277 10.8733 57.9071 10.1297 57.1675C9.386 56.4278 9.01416 55.5648 9.01416 54.5786V16.3624H12.7325V54.5786H51.1555V58.277H12.7325Z" fill="#BAB8D0" fill-opacity="0.6"/>
</g>
<defs>
<clipPath id="clip0_53_71">
<rect width="67" height="58" fill="white"/>
</clipPath>
</defs>
</svg>
