<svg width="30" height="30" viewBox="0 0 30 30" fill="none" xmlns="http://www.w3.org/2000/svg">
<path d="M9.99438 14.7255L16.3393 20.9223L17.8433 19.3456L13.0754 14.6891L17.7319 9.92129L16.1911 8.38063L9.99438 14.7255ZM0.17131 14.8416C0.147899 12.8601 0.506373 10.9828 1.24673 9.20974C1.98708 7.4367 3.00798 5.88391 4.30941 4.55136C5.61084 3.21881 7.13908 2.16151 8.89413 1.37947C10.6492 0.597436 12.5175 0.194712 14.499 0.171301C16.5047 0.147604 18.3941 0.505933 20.1671 1.24629C21.9401 1.98664 23.4869 3.00761 24.8074 4.30918C26.1278 5.61076 27.1791 7.13907 27.9611 8.89412C28.7432 10.6492 29.1459 12.5175 29.1693 14.499C29.193 16.5047 28.8347 18.394 28.0943 20.1671C27.3539 21.9401 26.339 23.4868 25.0495 24.8071C23.76 26.1275 22.2378 27.1786 20.4827 27.9607C18.7277 28.7427 16.8473 29.1456 14.8416 29.1693C12.8601 29.1927 10.9828 28.8342 9.20975 28.0939C7.43672 27.3535 5.88399 26.3387 4.55158 25.0493C3.21918 23.76 2.16195 22.2378 1.37991 20.4827C0.597876 18.7277 0.195007 16.8473 0.17131 14.8416ZM2.34616 14.8159C2.3867 18.2473 3.62331 21.145 6.05599 23.5089C8.48867 25.8728 11.4086 27.0347 14.8159 26.9944C18.2473 26.9539 21.1451 25.7233 23.5091 23.3027C25.8732 20.8821 27.035 17.9561 26.9944 14.5247C26.9542 11.1174 25.7237 8.22571 23.3029 5.84956C20.8822 3.47341 17.9561 2.30561 14.5247 2.34615C11.1174 2.3864 8.2258 3.62294 5.84979 6.05577C3.47378 8.48859 2.3059 11.4086 2.34616 14.8159Z" fill="#BAB8D0" fill-opacity="0.6"/>
</svg>
