<svg width="24" height="21" viewBox="0 0 24 21" fill="none" xmlns="http://www.w3.org/2000/svg">
<path d="M12 20.7229L10.8042 19.7209C8.74761 17.9673 7.04735 16.4546 5.70342 15.1827C4.3595 13.9109 3.28893 12.774 2.49171 11.7719C1.69449 10.7698 1.13546 9.86252 0.814624 9.05002C0.493791 8.23752 0.333374 7.41599 0.333374 6.58543C0.333374 4.95763 0.921569 3.59826 2.09796 2.50731C3.27435 1.41634 4.72782 0.87085 6.45837 0.87085C7.56671 0.87085 8.5924 1.1146 9.53546 1.6021C10.4785 2.0896 11.3 2.79377 12 3.7146C12.8167 2.7396 13.682 2.02189 14.5959 1.56147C15.5098 1.10106 16.4917 0.87085 17.5417 0.87085C19.2723 0.87085 20.7257 1.41634 21.9021 2.50731C23.0785 3.59826 23.6667 4.95763 23.6667 6.58543C23.6667 7.41599 23.5063 8.23752 23.1855 9.05002C22.8646 9.86252 22.3056 10.7698 21.5084 11.7719C20.7112 12.774 19.6406 13.9109 18.2967 15.1827C16.9527 16.4546 15.2525 17.9673 13.1959 19.7209L12 20.7229ZM12 18.5834C13.9685 16.9043 15.5884 15.4644 16.8597 14.2636C18.131 13.0629 19.141 12.0111 19.8896 11.1084C20.6382 10.2056 21.1632 9.40088 21.4646 8.69428C21.766 7.98765 21.9167 7.28602 21.9167 6.58936C21.9167 5.39508 21.5084 4.41425 20.6917 3.64689C19.875 2.87953 18.8272 2.49585 17.5483 2.49585C16.5464 2.49585 15.6192 2.78022 14.7665 3.34897C13.9139 3.91772 13.225 4.71668 12.7 5.74585H11.2709C10.7653 4.73474 10.0862 3.94029 9.23358 3.36252C8.38092 2.78474 7.45367 2.49585 6.45181 2.49585C5.17285 2.49585 4.12504 2.87953 3.30837 3.64689C2.49171 4.41425 2.08337 5.39662 2.08337 6.59399C2.08337 7.29245 2.23407 7.99828 2.53546 8.71148C2.83685 9.42467 3.36185 10.2372 4.11046 11.149C4.85907 12.0608 5.87504 13.1125 7.15837 14.3042C8.44171 15.4959 10.0556 16.9222 12 18.5834Z" fill="#BAB8D0" fill-opacity="0.6"/>
</svg>
