<svg width="46" height="44" viewBox="0 0 46 44" fill="none" xmlns="http://www.w3.org/2000/svg">
<g clip-path="url(#clip0_49_8)">
<path d="M15.3981 6.34937C11.8986 10.211 11.9763 15.7806 15.5537 19.865C16.4091 20.6447 17.6145 21.5359 19.2866 22.1671C19.7143 22.3156 20.1031 22.4641 20.492 22.5755C21.153 22.7612 22.164 22.9468 23.3694 22.9468C24.7304 22.9468 25.7413 22.6869 25.9358 22.6498C25.9358 22.6498 28.7354 22.0186 30.6796 19.9392C33.0516 17.3772 34.6069 10.9536 31.3018 6.83207C25.7413 -0.0742555 20.8419 0.297053 15.3981 6.34937Z" stroke="#7268AB" stroke-opacity="0.6" stroke-width="3" stroke-miterlimit="10"/>
<path d="M27.1023 27.6253C28.1133 28.5165 29.0465 28.9992 29.2021 29.0734C29.2021 29.0734 31.6906 30.4473 34.607 30.1874C38.1843 29.8903 43.9392 26.2144 44.4835 21.016C45.3779 12.3646 41.5284 9.46837 33.2071 10.3224C27.88 10.8793 23.7972 14.9637 23.4861 20.2734C23.525 21.3874 23.9527 22.8355 24.6915 24.3949C24.8859 24.7663 25.0803 25.1376 25.2748 25.4717C25.6247 26.0287 26.208 26.8456 27.1023 27.6253Z" stroke="#7268AB" stroke-opacity="0.6" stroke-width="3" stroke-miterlimit="10"/>
<path d="M19.2866 27.0312C20.2976 26.1401 20.8808 25.2861 20.9586 25.1376C20.9586 25.1376 22.9028 22.8354 22.8639 20.0506C22.825 16.6717 19.1699 11.065 13.8428 10.2481C4.9383 8.87427 1.63314 12.3274 1.86644 20.2363C2.02198 25.2861 5.94928 29.2591 11.3931 29.8903C12.5596 29.8903 14.0761 29.7789 15.7481 29.1477C16.1758 28.9992 16.5647 28.8135 16.9146 28.6279C17.4979 28.3308 18.3922 27.811 19.2866 27.0312Z" stroke="#7268AB" stroke-opacity="0.6" stroke-width="3" stroke-miterlimit="10"/>
<path d="M21.1919 25.7317C20.2198 26.6599 19.7143 27.5511 19.6365 27.6996C19.6365 27.6996 18.1589 30.0388 18.3533 32.8236C18.5866 36.2397 22.3195 41.8093 27.7244 42.4405C36.7844 43.4802 39.8952 39.8785 39.1564 31.9325C38.6898 26.8456 34.4903 22.984 28.9687 22.5755C27.8022 22.6127 26.2468 22.7983 24.6526 23.5038C24.2248 23.6895 23.8749 23.8751 23.5249 24.0608C22.9028 24.3578 22.0473 24.9148 21.1919 25.7317Z" stroke="#7268AB" stroke-opacity="0.6" stroke-width="3" stroke-miterlimit="10"/>
<path d="M24.4193 25.2489C23.4083 24.3207 22.514 23.838 22.3584 23.7637C22.3584 23.7637 19.9087 22.3527 16.9924 22.5755C13.4151 22.8354 7.62132 26.4743 7.03806 31.6354C6.06596 40.2869 9.87661 43.2202 18.1978 42.4405C23.525 41.9207 27.4911 37.8734 27.88 32.6008C27.8411 31.4869 27.6078 30.0017 26.869 28.4793C26.6746 28.108 26.4802 27.7367 26.2857 27.4025C25.8969 26.8456 25.3136 26.0287 24.4193 25.2489Z" stroke="#7268AB" stroke-opacity="0.6" stroke-width="3" stroke-miterlimit="10"/>
</g>
<defs>
<clipPath id="clip0_49_8">
<rect width="46" height="44" fill="white"/>
</clipPath>
</defs>
</svg>
