<svg width="24" height="15" viewBox="0 0 24 15" fill="none" xmlns="http://www.w3.org/2000/svg">
<path d="M0.333374 14.5833V12.9583H12V14.5833H0.333374ZM0.333374 8.89583V7.27083H6.16671V8.89583H0.333374ZM0.333374 3.20833V1.58333H6.16671V3.20833H0.333374ZM22.4417 14.5833L17.775 10.25C17.2695 10.6111 16.725 10.8819 16.1417 11.0625C15.5584 11.2431 14.9556 11.3333 14.3334 11.3333C12.7195 11.3333 11.3438 10.8052 10.2063 9.74896C9.06879 8.69271 8.50004 7.41528 8.50004 5.91667C8.50004 4.41806 9.06879 3.14062 10.2063 2.08438C11.3438 1.02812 12.7195 0.5 14.3334 0.5C15.9473 0.5 17.323 1.02812 18.4605 2.08438C19.598 3.14062 20.1667 4.41806 20.1667 5.91667C20.1667 6.49444 20.0695 7.05417 19.875 7.59583C19.6806 8.1375 19.3889 8.64306 19 9.1125L23.6667 13.4458L22.4417 14.5833ZM14.3265 9.70833C15.4589 9.70833 16.4237 9.34032 17.2209 8.60428C18.0181 7.86826 18.4167 6.97451 18.4167 5.92303C18.4167 4.87157 18.0204 3.97569 17.2277 3.23542C16.4351 2.49514 15.4726 2.125 14.3402 2.125C13.2079 2.125 12.2431 2.49302 11.4459 3.22905C10.6487 3.96507 10.25 4.85882 10.25 5.9103C10.25 6.96177 10.6464 7.85764 11.439 8.59792C12.2317 9.33819 13.1942 9.70833 14.3265 9.70833Z" fill="#BAB8D0" fill-opacity="0.6"/>
</svg>
