<svg width="24" height="22" viewBox="0 0 24 22" fill="none" xmlns="http://www.w3.org/2000/svg">
<path d="M9.31671 21.8334L8.73337 18.4209C8.36393 18.2945 7.97504 18.1229 7.56671 17.9063C7.15837 17.6896 6.79865 17.4639 6.48754 17.2292L3.04587 18.6917L0.333374 14.25L3.48337 12.1104C3.44449 11.9479 3.42018 11.7629 3.41046 11.5552C3.40074 11.3476 3.39587 11.1625 3.39587 11C3.39587 10.8375 3.40074 10.6525 3.41046 10.4448C3.42018 10.2372 3.44449 10.0521 3.48337 9.8896L0.333374 7.75002L3.04587 3.30835L6.48754 4.77085C6.79865 4.53613 7.15837 4.31044 7.56671 4.09377C7.97504 3.8771 8.36393 3.7146 8.73337 3.60627L9.31671 0.166687H14.6834L15.2667 3.57919C15.6362 3.70558 16.0299 3.87259 16.448 4.08023C16.866 4.28787 17.2209 4.51808 17.5125 4.77085L20.9542 3.30835L23.6667 7.75002L20.5167 9.83544C20.5556 10.016 20.5799 10.2101 20.5896 10.4177C20.5993 10.6254 20.6042 10.8195 20.6042 11C20.6042 11.1806 20.5993 11.3702 20.5896 11.5688C20.5799 11.7674 20.5556 11.957 20.5167 12.1375L23.6667 14.25L20.9542 18.6917L17.5125 17.2292C17.2014 17.4639 16.8466 17.6941 16.448 17.9198C16.0493 18.1455 15.6556 18.3125 15.2667 18.4209L14.6834 21.8334H9.31671ZM12 14.5209C13.05 14.5209 13.9445 14.1778 14.6834 13.4917C15.4223 12.8056 15.7917 11.975 15.7917 11C15.7917 10.025 15.4223 9.19447 14.6834 8.50835C13.9445 7.82224 13.05 7.47919 12 7.47919C10.95 7.47919 10.0556 7.82224 9.31671 8.50835C8.57782 9.19447 8.20837 10.025 8.20837 11C8.20837 11.975 8.57782 12.8056 9.31671 13.4917C10.0556 14.1778 10.95 14.5209 12 14.5209ZM12 12.8959C11.4362 12.8959 10.9549 12.7108 10.5563 12.3406C10.1577 11.9705 9.95837 11.5236 9.95837 11C9.95837 10.4764 10.1577 10.0295 10.5563 9.6594C10.9549 9.28926 11.4362 9.10419 12 9.10419C12.5639 9.10419 13.0452 9.28926 13.4438 9.6594C13.8424 10.0295 14.0417 10.4764 14.0417 11C14.0417 11.5236 13.8424 11.9705 13.4438 12.3406C13.0452 12.7108 12.5639 12.8959 12 12.8959ZM10.7167 20.2084H13.2834L13.6917 17.175C14.3334 17.0306 14.941 16.8049 15.5146 16.4979C16.0882 16.191 16.6084 15.8209 17.075 15.3875L20.1667 16.6334L21.3334 14.6834L18.5917 12.8146C18.6695 12.5077 18.7327 12.2052 18.7813 11.9073C18.8299 11.6094 18.8542 11.307 18.8542 11C18.8542 10.6931 18.8348 10.3906 18.7959 10.0927C18.757 9.79481 18.6889 9.49238 18.5917 9.18544L21.3334 7.31669L20.1667 5.36669L17.075 6.61252C16.6278 6.14308 16.1223 5.75037 15.5584 5.4344C14.9945 5.11842 14.3723 4.9153 13.6917 4.82502L13.2834 1.79169H10.7167L10.3084 4.82502C9.64726 4.95141 9.0299 5.16808 8.45629 5.47502C7.88268 5.78197 7.37226 6.16113 6.92504 6.61252L3.83337 5.36669L2.66671 7.31669L5.40837 9.18544C5.3306 9.49238 5.2674 9.79481 5.21879 10.0927C5.17018 10.3906 5.14587 10.6931 5.14587 11C5.14587 11.307 5.17018 11.6094 5.21879 11.9073C5.2674 12.2052 5.3306 12.5077 5.40837 12.8146L2.66671 14.6834L3.83337 16.6334L6.92504 15.3875C7.39171 15.8209 7.91185 16.191 8.48546 16.4979C9.05907 16.8049 9.66671 17.0306 10.3084 17.175L10.7167 20.2084Z" fill="#BAB8D0" fill-opacity="0.6"/>
</svg>
